<svg width="1448" height="1032" viewBox="0 0 1448 1032" fill="none" xmlns="http://www.w3.org/2000/svg">
<g clip-path="url(#clip0_274_112)" filter="url(#filter0_d_274_112)">
<rect width="1440" height="1024" transform="translate(4)" fill="black"/>
<g opacity="0.1">
<path d="M-1441.36 640.297C-1504.64 496.225 -1487.17 352.437 -1193.76 353.807C-990.434 354.757 -980.678 525.458 -823.202 480.798C-728.905 454.055 -836.039 404.57 -746.647 375.869C-592.41 326.347 -446.193 500.671 -268.749 461.624C-70.7956 418.064 -640.199 305.588 -442.022 262.15C-270.917 224.647 -149.563 367.027 31.182 335.44C217.439 302.889 -49.9964 191.413 126.876 153.07C360.963 102.323 370.78 374.025 616.074 330.119C835.845 290.782 433.093 148.545 655.07 110.73C894.651 69.9167 883.651 270.897 1150.35 274.185C1452.72 277.913 1710.33 183.065 1681.86 78.4954" stroke="white" stroke-width="4"/>
<path d="M-1391.66 657.915C-1420.02 589.218 -1419.53 523.311 -1380.04 471.664C-1335.23 419.597 -1288.85 377.675 -1137.75 377.222C-934.479 377.422 -927.565 546.92 -766.172 504.518C-664.052 478.948 -769.779 423.369 -672.263 396.602C-514.402 350.15 -382.245 522.411 -202.593 486.184C0.360413 445.884 -547.123 327.213 -344.05 285.628C-166.851 249.611 -54.0786 394.428 132.207 364.183C328.842 332.772 38.3252 213.042 224.523 174.237C466.389 123.643 466.222 403.018 717.036 358.045C940.948 317.945 529.972 171.925 757.774 134.471C1001.24 94.3724 988.64 299.099 1255.74 300.293C1555.19 302.343 1803.99 206.062 1768.75 103.538" stroke="white" stroke-width="4"/>
<path d="M-1341.87 675.499C-1367.13 610.156 -1355.01 550.376 -1309.26 500.902C-1252.87 450.62 -1237.5 402.185 -1081.94 400.619C-878.657 400.071 -874.521 568.36 -709.315 528.237C-599.426 503.889 -703.441 442.219 -597.894 417.435C-436.555 374.071 -318.338 544.196 -136.61 510.8C71.1906 473.786 -454.099 349.049 -246.212 309.344C-62.9812 274.847 41.0931 422.06 232.864 393.189C439.833 362.978 126.641 234.843 322.201 195.632C571.856 145.234 561.312 432.242 817.719 386.232C1045.83 345.391 626.793 195.527 860.419 158.466C1107.74 119.104 1093.36 327.583 1360.98 326.686C1657.62 327.04 1897.72 229.263 1855.61 128.735" stroke="white" stroke-width="4"/>
<path d="M-1291.99 693.051C-1314.32 631.075 -1290.88 577.488 -1239 530.222C-1171.1 481.793 -1186.41 426.648 -1026.31 423.999C-822.968 422.702 -821.548 589.779 -652.633 551.956C-535.031 528.873 -637.027 461.121 -523.545 438.367C-358.874 398.108 -254.477 566.025 -70.8036 535.469C141.69 501.769 -361.139 371.095 -148.517 333.295C40.6796 300.354 135.942 449.919 333.142 422.453C550.398 393.505 214.943 256.815 419.901 217.252C677.354 167.096 656.039 461.693 918.112 414.678C1150.48 373.12 723.546 219.35 962.993 182.715C1214.16 144.11 1197.79 356.347 1466.06 353.362C1760.01 352.003 1991.5 252.669 1942.41 154.085" stroke="white" stroke-width="4"/>
<path d="M-1242.02 710.574C-1261.59 651.978 -1227.16 604.649 -1169.25 559.624C-1089.95 513.116 -1135.57 451.067 -970.865 447.362C-767.411 445.317 -768.644 611.179 -596.127 575.675C-470.868 553.905 -570.539 480.077 -449.22 459.401C-281.365 422.265 -190.662 587.901 -5.1762 560.195C211.856 529.835 -268.25 393.353 -50.9755 357.485C144.122 326.133 230.459 478.008 433.032 451.979C660.525 424.355 303.226 278.962 517.615 239.103C782.872 189.233 750.394 491.374 1018.21 443.386C1254.88 401.134 820.224 243.396 1065.49 207.222C1320.48 169.394 1301.93 385.393 1570.98 380.324C1862.35 377.235 2085.32 276.283 2029.16 179.593" stroke="white" stroke-width="4"/>
<path d="M-1191.95 728.063C-1208.95 672.859 -1163.85 631.852 -1100.01 589.102C-1009.4 544.582 -1084.98 475.436 -915.61 470.704C-711.985 467.911 -715.809 632.556 -539.795 599.39C-406.938 578.978 -503.98 499.085 -374.921 480.533C-204.031 446.536 -126.896 609.819 60.2704 584.972C281.686 557.977 -175.439 415.818 46.4048 381.908C247.335 352.181 324.637 506.321 532.522 481.76C770.202 455.522 391.483 301.278 615.334 261.179C888.402 211.639 844.368 521.279 1117.99 472.349C1359.03 429.427 916.818 267.662 1167.9 231.98C1426.7 194.951 1405.76 414.715 1675.73 407.567C1964.62 402.733 2179.19 300.102 2115.85 205.252" stroke="white" stroke-width="4"/>
<path d="M-1141.79 745.522C-1156.39 693.72 -1100.94 659.097 -1031.3 618.655C-929.471 576.189 -1034.65 499.756 -860.541 494.026C-656.691 490.487 -663.043 653.91 -483.64 623.101C-343.247 604.094 -437.353 518.145 -300.656 501.764C-126.878 470.921 -63.1817 631.782 125.532 609.801C351.174 586.195 -82.7166 438.493 143.613 406.566C350.308 378.496 418.464 534.858 631.602 511.796C879.414 487.004 479.706 323.767 713.048 283.483C993.929 234.318 937.951 551.408 1217.45 501.569C1462.91 458.001 1013.32 292.148 1270.2 256.993C1532.79 220.782 1509.28 444.314 1780.28 435.093C2066.82 428.498 2273.09 324.127 2202.47 231.066" stroke="white" stroke-width="4"/>
<path d="M-1091.53 762.949C-1103.91 714.561 -1038.44 686.382 -963.109 648.281C-850.165 607.934 -984.569 524.026 -805.658 517.327C-601.528 513.042 -610.346 675.243 -427.661 646.808C-279.793 629.25 -370.66 537.259 -226.426 523.095C-49.9101 495.421 0.479786 653.789 190.608 634.681C420.319 614.489 9.91051 461.376 240.64 431.458C453.03 405.078 511.932 563.618 730.263 542.085C988.15 518.8 567.889 346.426 810.749 306.014C1099.45 257.269 1031.14 581.759 1316.58 531.044C1566.51 486.853 1109.72 316.855 1372.4 282.26C1638.75 246.888 1612.47 474.189 1884.64 462.9C2168.94 454.53 2367.02 348.36 2289.02 257.034" stroke="white" stroke-width="4"/>
<path d="M-1041.18 780.346C-1051.52 735.38 -976.351 713.704 -895.444 677.976C-771.488 639.816 -934.734 548.243 -750.959 540.605C-546.494 535.576 -557.714 696.552 -371.857 670.511C-216.578 654.446 -303.901 556.426 -152.234 544.524C26.869 520.034 64.0869 675.839 255.497 659.612C489.118 642.857 102.435 484.468 337.479 456.583C555.493 431.927 605.035 592.598 828.496 572.625C1096.4 550.909 656.026 369.258 908.428 328.773C1204.94 280.492 1123.91 612.33 1415.38 560.772C1669.83 515.984 1206.01 341.782 1474.48 307.78C1744.57 273.268 1715.32 504.337 1988.79 490.989C2270.96 480.828 2460.96 372.8 2375.49 283.156" stroke="white" stroke-width="4"/>
<path d="M-990.731 797.712C-999.201 756.177 -914.676 741.062 -828.31 707.738C-693.445 671.828 -885.146 572.407 -696.445 563.859C-491.59 558.088 -505.151 717.837 -316.23 694.206C-153.606 679.68 -237.082 575.646 -78.0881 566.051C103.453 544.759 127.636 697.932 320.193 684.592C557.566 671.296 194.846 507.767 434.118 481.939C657.684 459.04 697.76 621.797 926.288 603.414C1204.15 583.326 744.109 392.26 1006.08 351.758C1310.4 303.987 1216.27 643.12 1513.82 590.752C1772.84 545.39 1302.18 366.928 1576.43 333.552C1850.23 299.921 1817.83 534.758 2092.72 519.357C2372.88 507.392 2554.9 397.448 2461.88 309.431" stroke="white" stroke-width="4"/>
<path d="M-940.185 815.05C-946.966 776.954 -853.413 768.456 -761.707 737.567C-616.04 703.973 -835.803 596.518 -642.113 587.091C-436.814 580.58 -452.654 739.1 -260.778 717.897C-90.8764 704.953 -170.201 594.923 -3.98831 587.679C179.84 569.598 191.127 720.07 384.699 709.623C625.663 699.808 287.138 531.275 530.551 507.528C759.594 486.419 790.103 651.216 1023.63 634.453C1311.38 616.053 832.133 415.436 1103.69 374.974C1415.83 327.757 1308.21 674.128 1611.9 620.985C1875.54 575.075 1398.22 392.295 1678.25 359.579C1955.74 326.849 1919.97 565.453 2196.42 548.007C2474.68 534.225 2648.85 422.306 2548.18 335.862" stroke="white" stroke-width="4"/>
<path d="M-889.542 832.357C-894.812 797.706 -792.567 795.88 -695.639 767.457C-539.279 736.242 -786.702 620.572 -587.964 610.296C-382.166 603.048 -400.222 760.338 -205.502 741.579C-28.3923 730.261 -103.263 614.252 70.0597 609.404C256.023 594.545 254.558 742.249 449.009 734.7C693.403 728.387 379.302 554.988 626.767 533.346C861.213 514.058 882.052 680.848 1120.52 665.735C1418.1 649.083 920.091 438.781 1201.25 398.415C1521.2 351.796 1399.71 705.35 1709.62 651.465C1977.93 605.032 1494.13 417.88 1779.91 385.856C2061.07 354.047 2021.75 596.416 2299.88 576.933C2576.36 561.322 2742.79 447.371 2634.38 362.446" stroke="white" stroke-width="4"/>
<path d="M-838.8 849.636C-842.739 818.436 -732.139 823.334 -630.109 797.407C-463.17 768.635 -737.843 644.57 -533.998 633.476C-327.647 625.493 -347.856 781.553 -150.403 765.252C33.8439 755.606 -36.2712 633.636 144.051 631.227C331.998 619.603 317.924 764.472 513.122 759.825C760.785 757.034 471.328 578.908 722.756 559.394C962.529 541.959 973.598 710.696 1216.93 697.261C1524.27 682.418 1007.98 462.297 1298.75 422.084C1626.5 376.109 1490.77 736.786 1806.95 682.194C2079.98 635.263 1589.9 443.683 1881.42 412.386C2166.22 381.518 2123.15 627.648 2403.08 606.138C2677.9 588.686 2836.71 472.645 2720.47 389.183" stroke="white" stroke-width="4"/>
<path d="M-787.96 866.887C-790.745 839.144 -672.13 850.818 -565.12 827.415C-387.715 801.15 -689.222 668.512 -480.212 656.63C-273.253 647.915 -295.555 802.744 -95.4798 788.918C95.8314 780.985 30.7737 653.076 217.983 653.15C407.761 644.771 381.226 786.738 577.035 784.997C827.804 785.748 563.21 603.035 818.511 585.672C1063.53 570.122 1064.73 740.757 1312.87 729.03C1629.9 716.054 1095.78 485.985 1396.19 445.982C1731.73 400.696 1581.38 768.434 1903.89 713.17C2181.69 665.767 1685.51 469.706 1982.76 439.168C2271.18 409.261 2224.15 659.149 2506.02 635.622C2779.29 616.317 2930.61 498.13 2806.46 416.076" stroke="white" stroke-width="4"/>
<path d="M-737.018 884.108C-738.828 859.827 -612.54 878.326 -500.672 857.476C-312.918 833.78 -640.837 692.392 -426.606 679.755C-218.985 670.312 -243.316 823.908 -40.7319 812.572C157.57 806.397 97.8702 672.571 291.852 675.169C483.309 670.046 444.461 809.046 640.748 810.214C894.46 814.526 654.941 627.366 914.023 612.176C1164.22 598.541 1155.45 771.028 1408.32 761.037C1734.97 749.987 1183.5 509.843 1493.56 470.106C1836.88 425.553 1671.54 800.29 2000.43 744.389C2283.04 696.541 1780.96 495.946 2083.93 466.199C2375.93 437.274 2324.75 690.914 2608.68 665.38C2880.53 644.212 3024.48 523.824 2892.34 443.121" stroke="white" stroke-width="4"/>
<path d="M-685.976 901.303C-686.991 880.487 -553.372 905.859 -436.771 887.591C-238.787 866.526 -592.688 716.214 -373.179 702.853C-164.842 692.685 -191.142 845.049 13.8395 836.217C219.056 831.841 165.014 692.122 365.653 697.287C558.636 695.428 507.627 831.396 704.257 835.476C960.749 843.367 746.511 651.902 1009.28 638.908C1264.57 627.22 1245.74 801.508 1503.28 793.282C1839.46 784.218 1271.13 533.872 1590.84 494.458C1941.93 450.683 1761.22 832.356 2096.57 775.853C2384.03 727.585 1876.24 522.403 2184.9 493.482C2480.47 465.558 2424.95 722.944 2711.06 695.415C2981.6 672.373 3118.3 549.728 2978.1 470.321" stroke="white" stroke-width="4"/>
<path d="M-634.833 918.47C-635.23 901.121 -494.627 933.414 -373.416 917.755C-165.324 899.383 -544.77 739.975 -319.93 725.921C-110.823 715.032 -139.03 866.165 68.2353 859.851C280.289 857.317 232.205 711.729 439.382 719.501C633.739 720.917 570.723 853.789 767.561 860.783C1026.67 872.27 837.912 676.642 1104.28 665.865C1364.58 656.154 1335.6 832.196 1597.72 825.763C1943.37 818.742 1358.65 558.072 1688.03 519.037C2046.88 476.085 1850.43 864.626 2192.28 807.558C2484.65 758.897 1971.35 549.077 2285.69 521.014C2584.79 494.112 2524.71 755.236 2813.14 725.724C3082.49 700.798 3212.08 575.843 3063.73 497.674" stroke="white" stroke-width="4"/>
<path d="M-583.587 935.611C-583.547 921.732 -436.306 960.99 -310.612 947.966C-92.5346 932.348 -497.082 763.674 -266.858 748.96C-56.9265 737.354 -86.9796 887.255 122.456 883.472C341.267 882.822 299.439 731.392 513.036 741.814C708.612 746.512 633.746 876.223 830.658 886.133C1092.21 901.233 929.137 701.586 1199.01 693.047C1464.23 685.343 1425.01 863.089 1691.65 858.477C2046.69 853.558 1446.07 582.441 1785.12 543.844C2151.71 501.759 1939.15 897.101 2287.57 839.503C2584.88 790.475 2066.27 575.968 2386.26 548.796C2688.87 522.934 2624.05 787.79 2914.92 756.306C3183.19 729.488 3305.8 602.168 3149.23 525.18" stroke="white" stroke-width="4"/>
<path d="M-532.24 952.726C-531.941 942.317 -378.411 988.583 -248.359 978.223C-20.424 965.419 -449.623 787.309 -213.963 771.968C-3.15334 759.649 -34.9912 908.32 176.5 907.081C401.988 908.357 366.714 751.112 586.611 764.223C783.252 772.211 696.695 898.7 893.546 911.525C1157.38 930.255 1020.18 726.733 1293.46 720.453C1563.53 714.786 1513.97 894.186 1785.06 891.423C2149.4 888.662 1533.38 606.98 1882.1 568.877C2256.42 527.705 2027.38 929.778 2382.42 871.687C2684.71 822.32 2161 603.074 2486.62 576.827C2792.7 552.025 2722.95 820.603 3016.38 787.161C3283.7 758.442 3399.45 628.704 3234.59 552.839" stroke="white" stroke-width="4"/>
<path d="M-480.787 969.814C-480.409 962.876 -320.941 1016.19 -186.66 1008.52C51.0053 998.591 -402.388 810.88 -161.242 794.943C50.4994 781.917 16.9379 929.358 230.37 930.675C462.453 933.919 434.029 770.888 660.103 786.729C857.655 798.013 759.567 921.217 956.223 936.959C1222.18 959.333 1111.03 752.081 1387.62 748.08C1662.45 744.48 1602.47 925.485 1877.93 924.596C2251.49 924.053 1620.57 631.689 1978.96 594.137C2360.99 553.922 2115.11 962.655 2476.82 904.106C2784.14 854.427 2255.52 630.394 2586.76 605.105C2896.28 581.383 2821.39 853.673 3117.5 818.287C3383.99 787.659 3493.03 655.45 3319.81 580.651" stroke="white" stroke-width="4"/>
<path d="M-429.231 986.878C-428.953 983.409 -263.898 1043.82 -125.517 1038.86C121.748 1031.86 -355.377 834.385 -108.695 817.887C104.031 804.158 68.8066 950.37 284.065 954.256C522.659 959.508 501.38 790.722 733.508 809.331C931.816 823.918 822.362 943.776 1018.69 962.434C1286.59 988.466 1201.67 777.631 1481.48 775.93C1760.99 774.425 1690.5 956.983 1970.26 957.997C2352.95 959.727 1707.64 656.566 2075.69 619.623C2465.42 580.41 2202.34 995.729 2570.77 936.761C2883.16 886.797 2349.84 657.93 2686.66 633.63C2999.6 611.008 2919.37 887 3218.29 849.683C3484.07 817.139 3586.53 682.408 3404.88 608.616" stroke="white" stroke-width="4"/>
<path d="M-377.571 1003.92C-377.571 1003.92 -207.284 1071.45 -64.9311 1069.23C191.799 1065.23 -308.587 857.825 -56.3211 840.798C157.443 826.371 120.616 971.357 337.586 977.822C582.604 985.123 568.765 810.614 806.822 832.031C1005.73 849.925 885.076 966.376 1080.94 987.949C1350.62 1017.65 1292.11 803.382 1575.04 804C1859.14 804.62 1778.06 988.68 2062.04 991.623C2453.78 995.684 1794.57 681.613 2172.29 645.335C2569.68 607.168 2289.04 1029 2664.25 969.65C2981.74 919.428 2443.93 685.679 2786.32 662.403C3102.64 640.899 3016.87 920.581 3318.73 881.349C3583.92 846.882 3679.94 709.577 3489.8 636.734" stroke="white" stroke-width="4"/>
</g>
<g filter="url(#filter1_f_274_112)">
<ellipse cx="766.5" cy="530" rx="562.5" ry="217" fill="#FF0000"/>
</g>
</g>
<defs>
<filter id="filter0_d_274_112" x="0" y="0" width="1448" height="1032" filterUnits="userSpaceOnUse" color-interpolation-filters="sRGB">
<feFlood flood-opacity="0" result="BackgroundImageFix"/>
<feColorMatrix in="SourceAlpha" type="matrix" values="0 0 0 0 0 0 0 0 0 0 0 0 0 0 0 0 0 0 127 0" result="hardAlpha"/>
<feOffset dy="4"/>
<feGaussianBlur stdDeviation="2"/>
<feComposite in2="hardAlpha" operator="out"/>
<feColorMatrix type="matrix" values="0 0 0 0 0 0 0 0 0 0 0 0 0 0 0 0 0 0 0.25 0"/>
<feBlend mode="normal" in2="BackgroundImageFix" result="effect1_dropShadow_274_112"/>
<feBlend mode="normal" in="SourceGraphic" in2="effect1_dropShadow_274_112" result="shape"/>
</filter>
<filter id="filter1_f_274_112" x="-396" y="-287" width="2325" height="1634" filterUnits="userSpaceOnUse" color-interpolation-filters="sRGB">
<feFlood flood-opacity="0" result="BackgroundImageFix"/>
<feBlend mode="normal" in="SourceGraphic" in2="BackgroundImageFix" result="shape"/>
<feGaussianBlur stdDeviation="300" result="effect1_foregroundBlur_274_112"/>
</filter>
<clipPath id="clip0_274_112">
<rect width="1440" height="1024" fill="white" transform="translate(4)"/>
</clipPath>
</defs>
</svg>
